<svg width="17" height="12" viewBox="0 0 17 12" fill="none" xmlns="http://www.w3.org/2000/svg">
<path d="M1.00049 5.23145C0.586275 5.23145 0.250488 5.56723 0.250488 5.98145C0.250488 6.39566 0.586275 6.73145 1.00049 6.73145V5.98145V5.23145ZM16.5308 6.51178C16.8237 6.21888 16.8237 5.74401 16.5308 5.45112L11.7578 0.678144C11.465 0.385251 10.9901 0.385251 10.6972 0.678144C10.4043 0.971038 10.4043 1.44591 10.6972 1.7388L14.9398 5.98145L10.6972 10.2241C10.4043 10.517 10.4043 10.9919 10.6972 11.2847C10.9901 11.5776 11.465 11.5776 11.7578 11.2847L16.5308 6.51178ZM1.00049 5.98145V6.73145L16.0005 6.73145V5.98145V5.23145L1.00049 5.23145V5.98145Z" fill="black"/>
</svg>
