<svg width="21" height="21" viewBox="0 0 21 21" fill="none" xmlns="http://www.w3.org/2000/svg">
<path d="M18.8377 15.769C18.8377 16.1247 18.7676 16.4769 18.6315 16.8055C18.4954 17.1341 18.2959 17.4326 18.0444 17.6841C17.7929 17.9356 17.4944 18.1351 17.1658 18.2712C16.8372 18.4073 16.485 18.4774 16.1294 18.4774H4.87935C4.16106 18.4774 3.47218 18.192 2.96427 17.6841C2.45636 17.1762 2.17102 16.4873 2.17102 15.769V11.569C2.90335 12.2602 3.87241 12.6448 4.87935 12.644H8.83769C8.83769 12.8651 8.92548 13.077 9.08176 13.2333C9.23804 13.3896 9.45001 13.4774 9.67102 13.4774H11.3377C11.5587 13.4774 11.7707 13.3896 11.9269 13.2333C12.0832 13.077 12.171 12.8651 12.171 12.644H16.1294C17.1777 12.644 18.1294 12.2357 18.8377 11.569V15.769ZM11.9627 2.64404C12.46 2.64404 12.9369 2.84159 13.2885 3.19322C13.6401 3.54485 13.8377 4.02176 13.8377 4.51904V5.97738H16.1294C16.176 5.97738 16.2224 5.97849 16.2685 5.98071C16.9747 6.01576 17.6393 6.32561 18.1201 6.84406C18.6009 7.36252 18.8599 8.04846 18.8417 8.75532C18.8235 9.46218 18.5296 10.1339 18.0228 10.627C17.516 11.12 16.8364 11.3953 16.1294 11.394H12.171V10.9774C12.171 10.7564 12.0832 10.5444 11.9269 10.3881C11.7707 10.2318 11.5587 10.144 11.3377 10.144H9.67102C9.45001 10.144 9.23804 10.2318 9.08176 10.3881C8.92548 10.5444 8.83769 10.7564 8.83769 10.9774V11.394H4.87935C4.16106 11.394 3.47218 11.1087 2.96427 10.6008C2.45636 10.0929 2.17102 9.404 2.17102 8.68571C2.17102 7.96741 2.45636 7.27854 2.96427 6.77063C3.47218 6.26272 4.16106 5.97738 4.87935 5.97738H7.17102V4.51904C7.17102 4.02176 7.36856 3.54485 7.72019 3.19322C8.07183 2.84159 8.54874 2.64404 9.04602 2.64404H11.9627ZM9.04602 3.89404C8.88026 3.89404 8.72129 3.95989 8.60408 4.0771C8.48687 4.19431 8.42102 4.35328 8.42102 4.51904V5.97738H12.5877V4.51904C12.5877 4.35328 12.5218 4.19431 12.4046 4.0771C12.2874 3.95989 12.1284 3.89404 11.9627 3.89404H9.04602Z" fill="white"/>
</svg>
