<svg width="21" height="21" viewBox="0 0 21 21" fill="none" xmlns="http://www.w3.org/2000/svg">
<g clip-path="url(#clip0_91_160)">
<path d="M20.2657 18.0684C20.2657 18.4699 20.1255 18.8108 19.8452 19.0911L18.6293 20.3184C18.3339 20.5987 17.9892 20.7388 17.5952 20.7388C17.1937 20.7388 16.8528 20.5987 16.5725 20.3184L12.4475 16.182C12.1596 15.9093 12.0157 15.5684 12.0157 15.1593C12.0157 14.7578 12.1785 14.3941 12.5043 14.0684L9.59521 11.1593L8.1634 12.5911C8.05734 12.6971 7.92855 12.7502 7.77703 12.7502C7.62552 12.7502 7.49673 12.6971 7.39067 12.5911C7.40582 12.6062 7.45317 12.6517 7.53271 12.7274C7.61226 12.8032 7.65961 12.8524 7.67476 12.8752C7.68991 12.8979 7.72779 12.9415 7.7884 13.0059C7.849 13.0703 7.88688 13.1214 7.90203 13.1593C7.91718 13.1971 7.93991 13.2483 7.97021 13.3127C8.00052 13.3771 8.02135 13.4396 8.03271 13.5002C8.04408 13.5608 8.04976 13.629 8.04976 13.7047C8.04976 13.9926 7.9437 14.2502 7.73158 14.4774C7.70885 14.5002 7.64635 14.5684 7.54408 14.682C7.44181 14.7956 7.36984 14.8733 7.32817 14.9149C7.2865 14.9566 7.21643 15.0191 7.11794 15.1024C7.01946 15.1858 6.93612 15.2445 6.86794 15.2786C6.79976 15.3127 6.71643 15.3468 6.61794 15.3809C6.51946 15.4149 6.42097 15.432 6.32249 15.432C6.01946 15.432 5.76188 15.3259 5.54976 15.1138L0.913397 10.4774C0.701275 10.2653 0.595215 10.0078 0.595215 9.70472C0.595215 9.60624 0.61226 9.50775 0.646351 9.40927C0.680442 9.31078 0.714533 9.22745 0.748624 9.15927C0.782715 9.09109 0.841427 9.00775 0.92476 8.90927C1.00809 8.81078 1.07059 8.74071 1.11226 8.69904C1.15393 8.65737 1.23158 8.5854 1.34521 8.48313C1.45885 8.38086 1.52703 8.31836 1.54976 8.29563C1.77703 8.08351 2.03461 7.97745 2.32249 7.97745C2.39825 7.97745 2.46643 7.98313 2.52703 7.9945C2.58764 8.00586 2.65014 8.02669 2.71453 8.057C2.77893 8.0873 2.83006 8.11003 2.86794 8.12518C2.90582 8.14033 2.95696 8.17821 3.02135 8.23881C3.08575 8.29942 3.12931 8.3373 3.15203 8.35245C3.17476 8.3676 3.224 8.41495 3.29976 8.4945C3.37552 8.57404 3.42097 8.62139 3.43612 8.63654C3.33006 8.53048 3.27703 8.40169 3.27703 8.25018C3.27703 8.09866 3.33006 7.96987 3.43612 7.86381L7.39067 3.90927C7.49673 3.80321 7.62552 3.75018 7.77703 3.75018C7.92855 3.75018 8.05734 3.80321 8.1634 3.90927C8.14824 3.89412 8.1009 3.84866 8.02135 3.7729C7.94181 3.69715 7.89446 3.6479 7.87931 3.62518C7.86415 3.60245 7.82627 3.55889 7.76567 3.4945C7.70506 3.4301 7.66718 3.37897 7.65203 3.34109C7.63688 3.30321 7.61415 3.25207 7.58385 3.18768C7.55355 3.12328 7.53271 3.06078 7.52135 3.00018C7.50999 2.93957 7.50431 2.87139 7.50431 2.79563C7.50431 2.50775 7.61037 2.25018 7.82249 2.0229C7.84521 2.00018 7.90771 1.932 8.00999 1.81836C8.11226 1.70472 8.18423 1.62707 8.2259 1.5854C8.26756 1.54374 8.33764 1.48124 8.43612 1.3979C8.53461 1.31457 8.61794 1.25586 8.68612 1.22177C8.7543 1.18768 8.83764 1.15359 8.93612 1.1195C9.03461 1.0854 9.13309 1.06836 9.23158 1.06836C9.53461 1.06836 9.79218 1.17442 10.0043 1.38654L14.6407 6.0229C14.8528 6.23503 14.9589 6.4926 14.9589 6.79563C14.9589 6.89412 14.9418 6.9926 14.9077 7.09109C14.8736 7.18957 14.8395 7.2729 14.8054 7.34109C14.7714 7.40927 14.7126 7.4926 14.6293 7.59109C14.546 7.68957 14.4835 7.75965 14.4418 7.80131C14.4001 7.84298 14.3225 7.91495 14.2089 8.01722C14.0952 8.1195 14.027 8.182 14.0043 8.20472C13.777 8.41684 13.5195 8.5229 13.2316 8.5229C13.1558 8.5229 13.0876 8.51722 13.027 8.50586C12.9664 8.4945 12.9039 8.47366 12.8395 8.44336C12.7751 8.41306 12.724 8.39033 12.6861 8.37518C12.6482 8.36003 12.5971 8.32215 12.5327 8.26154C12.4683 8.20093 12.4248 8.16306 12.402 8.1479C12.3793 8.13275 12.3301 8.0854 12.2543 8.00586C12.1785 7.92631 12.1331 7.87896 12.1179 7.86381C12.224 7.96987 12.277 8.09866 12.277 8.25018C12.277 8.40169 12.224 8.53048 12.1179 8.63654L10.6861 10.0684L13.5952 12.9774C13.921 12.6517 14.2846 12.4888 14.6861 12.4888C15.0801 12.4888 15.4248 12.629 15.7202 12.9093L19.8452 17.0343C20.1255 17.3297 20.2657 17.6744 20.2657 18.0684Z" fill="white"/>
</g>
<defs>
<clipPath id="clip0_91_160">
<rect width="20" height="20" fill="white" transform="translate(0.504395 0.977539)"/>
</clipPath>
</defs>
</svg>
