<svg width="19" height="19" viewBox="0 0 19 19" fill="none" xmlns="http://www.w3.org/2000/svg">
<path d="M5.24497 4.11914C5.23497 4.42914 5.14497 4.70914 4.97497 4.95914C4.80497 5.20914 4.57997 5.39164 4.29997 5.50664C4.01997 5.62164 3.72997 5.64914 3.42997 5.58914C3.12997 5.52914 2.87247 5.38914 2.65747 5.16914C2.44247 4.94914 2.30997 4.68914 2.25997 4.38914C2.20997 4.08914 2.24497 3.79914 2.36497 3.51914C2.48497 3.23914 2.67497 3.01664 2.93497 2.85164C3.19497 2.68664 3.47997 2.60914 3.78997 2.61914C4.18997 2.62914 4.53247 2.77914 4.81747 3.06914C5.10247 3.35914 5.24497 3.70914 5.24497 4.11914ZM5.28997 6.72914H2.28997V16.1191H5.28997V6.72914ZM10.03 6.72914H7.04497V16.1191H9.99997V11.1991C9.99997 10.6691 10.12 10.2191 10.36 9.84914C10.59 9.50914 10.885 9.27414 11.245 9.14414C11.605 9.01414 11.965 9.00414 12.325 9.11414C12.685 9.22414 12.975 9.44414 13.195 9.77414C13.445 10.1541 13.57 10.6291 13.57 11.1991V16.1191H16.54V10.1791C16.54 9.29914 16.35 8.55414 15.97 7.94414C15.64 7.41414 15.18 7.01414 14.59 6.74414C14.05 6.51414 13.465 6.41414 12.835 6.44414C12.225 6.47414 11.66 6.62664 11.14 6.90164C10.62 7.17664 10.24 7.53914 9.99997 7.98914L10.03 6.72914Z" fill="#1B1B1B"/>
</svg>
