<svg width="21" height="21" viewBox="0 0 21 21" fill="none" xmlns="http://www.w3.org/2000/svg">
<path d="M4.00439 4.47754C3.60657 4.47754 3.22504 4.63557 2.94373 4.91688C2.66243 5.19818 2.50439 5.57971 2.50439 5.97754V12.9775C2.50439 13.3754 2.66243 13.7569 2.94373 14.0382C3.22504 14.3195 3.60657 14.4775 4.00439 14.4775H15.0044C15.4022 14.4775 15.7838 14.3195 16.0651 14.0382C16.3464 13.7569 16.5044 13.3754 16.5044 12.9775V5.97754C16.5044 5.57971 16.3464 5.19818 16.0651 4.91688C15.7838 4.63557 15.4022 4.47754 15.0044 4.47754H4.00439ZM6.50439 5.47754V6.47754C6.50439 7.00797 6.29368 7.51668 5.91861 7.89175C5.54354 8.26683 5.03483 8.47754 4.50439 8.47754H3.50439V7.47754H4.50439C4.76961 7.47754 5.02396 7.37218 5.2115 7.18465C5.39904 6.99711 5.50439 6.74276 5.50439 6.47754V5.47754H6.50439ZM9.50439 11.2275C9.04027 11.2275 8.59515 11.0432 8.26696 10.715C7.93877 10.3868 7.75439 9.94167 7.75439 9.47754C7.75439 9.01341 7.93877 8.56829 8.26696 8.2401C8.59515 7.91191 9.04027 7.72754 9.50439 7.72754C9.96852 7.72754 10.4136 7.91191 10.7418 8.2401C11.07 8.56829 11.2544 9.01341 11.2544 9.47754C11.2544 9.94167 11.07 10.3868 10.7418 10.715C10.4136 11.0432 9.96852 11.2275 9.50439 11.2275ZM3.50439 11.4775V10.4775H4.50439C5.03483 10.4775 5.54354 10.6883 5.91861 11.0633C6.29368 11.4384 6.50439 11.9471 6.50439 12.4775V13.4775H5.50439V12.4775C5.50439 12.2123 5.39904 11.958 5.2115 11.7704C5.02396 11.5829 4.76961 11.4775 4.50439 11.4775H3.50439ZM14.5044 11.4775C14.2392 11.4775 13.9848 11.5829 13.7973 11.7704C13.6098 11.958 13.5044 12.2123 13.5044 12.4775V13.4775H12.5044V12.4775C12.5044 11.9471 12.7151 11.4384 13.0902 11.0633C13.4653 10.6883 13.974 10.4775 14.5044 10.4775H15.5044V11.4775H14.5044ZM14.5044 7.47754H15.5044V8.47754H14.5044C13.974 8.47754 13.4653 8.26683 13.0902 7.89175C12.7151 7.51668 12.5044 7.00797 12.5044 6.47754V5.47754H13.5044V6.47754C13.5044 6.74276 13.6098 6.99711 13.7973 7.18465C13.9848 7.37218 14.2392 7.47754 14.5044 7.47754ZM17.5044 12.9775C17.5044 13.6406 17.241 14.2765 16.7722 14.7453C16.3033 15.2141 15.6674 15.4775 15.0044 15.4775H4.58939C4.69284 15.7701 4.88448 16.0234 5.1379 16.2025C5.39133 16.3816 5.69407 16.4777 6.00439 16.4775H15.0044C15.9327 16.4775 16.8229 16.1088 17.4793 15.4524C18.1356 14.796 18.5044 13.9058 18.5044 12.9775V7.97754C18.5046 7.66721 18.4085 7.36448 18.2294 7.11105C18.0503 6.85762 17.797 6.66598 17.5044 6.56254V12.9775Z" fill="white"/>
</svg>
