<svg width="21" height="21" viewBox="0 0 21 21" fill="none" xmlns="http://www.w3.org/2000/svg">
<path d="M3.25439 2.97754C3.05548 2.97754 2.86472 3.05656 2.72406 3.19721C2.58341 3.33786 2.50439 3.52863 2.50439 3.72754V8.72754C2.50439 10.9575 4.12639 12.8075 6.25439 13.1655V14.2275C6.25439 14.917 6.39019 15.5997 6.65403 16.2366C6.91786 16.8736 7.30458 17.4523 7.79208 17.9398C8.27959 18.4274 8.85835 18.8141 9.49531 19.0779C10.1323 19.3417 10.815 19.4775 11.5044 19.4775C12.1938 19.4775 12.8765 19.3417 13.5135 19.0779C14.1504 18.8141 14.7292 18.4274 15.2167 17.9398C15.7042 17.4523 16.0909 16.8736 16.3548 16.2366C16.6186 15.5997 16.7544 14.917 16.7544 14.2275V13.1235C17.3933 12.9425 17.9451 12.5365 18.3081 11.9805C18.671 11.4244 18.8206 10.7559 18.7292 10.0981C18.6378 9.44044 18.3116 8.83799 17.8108 8.40195C17.31 7.96592 16.6684 7.72575 16.0044 7.72575C15.3404 7.72575 14.6988 7.96592 14.198 8.40195C13.6971 8.83799 13.371 9.44044 13.2796 10.0981C13.1882 10.7559 13.3378 11.4244 13.7007 11.9805C14.0637 12.5365 14.6155 12.9425 15.2544 13.1235V14.2275C15.2544 14.72 15.1574 15.2076 14.9689 15.6626C14.7805 16.1176 14.5043 16.531 14.156 16.8792C13.8078 17.2274 13.3944 17.5036 12.9395 17.6921C12.4845 17.8805 11.9969 17.9775 11.5044 17.9775C11.0119 17.9775 10.5243 17.8805 10.0693 17.6921C9.61436 17.5036 9.20096 17.2274 8.85274 16.8792C8.50452 16.531 8.2283 16.1176 8.03985 15.6626C7.85139 15.2076 7.75439 14.72 7.75439 14.2275V13.1655C8.80312 12.9883 9.75516 12.4453 10.4416 11.6329C11.1281 10.8204 11.5046 9.79114 11.5044 8.72754V3.72754C11.5044 3.52863 11.4254 3.33786 11.2847 3.19721C11.1441 3.05656 10.9533 2.97754 10.7544 2.97754H9.25439C9.05548 2.97754 8.86472 3.05656 8.72406 3.19721C8.58341 3.33786 8.50439 3.52863 8.50439 3.72754C8.50439 3.92645 8.58341 4.11722 8.72406 4.25787C8.86472 4.39852 9.05548 4.47754 9.25439 4.47754H10.0044V8.72754C10.0044 9.52319 9.68832 10.2863 9.12572 10.8489C8.56311 11.4115 7.80004 11.7275 7.00439 11.7275C6.20875 11.7275 5.44568 11.4115 4.88307 10.8489C4.32047 10.2863 4.00439 9.52319 4.00439 8.72754V4.47754H4.75439C4.95331 4.47754 5.14407 4.39852 5.28472 4.25787C5.42538 4.11722 5.50439 3.92645 5.50439 3.72754C5.50439 3.52863 5.42538 3.33786 5.28472 3.19721C5.14407 3.05656 4.95331 2.97754 4.75439 2.97754H3.25439ZM16.0044 9.22754C16.1685 9.22754 16.3311 9.25987 16.4827 9.32269C16.6344 9.38551 16.7722 9.47758 16.8883 9.59366C17.0044 9.70973 17.0964 9.84753 17.1592 9.99918C17.2221 10.1508 17.2544 10.3134 17.2544 10.4775C17.2544 10.6417 17.2221 10.8042 17.1592 10.9559C17.0964 11.1076 17.0044 11.2453 16.8883 11.3614C16.7722 11.4775 16.6344 11.5696 16.4827 11.6324C16.3311 11.6952 16.1685 11.7275 16.0044 11.7275C15.6729 11.7275 15.3549 11.5958 15.1205 11.3614C14.8861 11.127 14.7544 10.8091 14.7544 10.4775C14.7544 10.146 14.8861 9.82808 15.1205 9.59366C15.3549 9.35924 15.6729 9.22754 16.0044 9.22754Z" fill="white"/>
</svg>
