<svg width="20" height="19" viewBox="0 0 20 19" fill="none" xmlns="http://www.w3.org/2000/svg">
<path d="M17.805 4.6291C17.225 4.8791 16.625 5.0441 16.005 5.1241C16.325 4.9241 16.605 4.6741 16.845 4.3741C17.085 4.0741 17.26 3.7441 17.37 3.3841C16.75 3.7541 16.09 4.0091 15.39 4.1491C15.09 3.8291 14.74 3.5841 14.34 3.4141C13.94 3.2441 13.525 3.1591 13.095 3.1591C12.525 3.1591 12 3.2991 11.52 3.5791C11.04 3.8591 10.66 4.2391 10.38 4.7191C10.1 5.1991 9.96 5.7241 9.96 6.2941C9.96 6.5341 9.985 6.7741 10.035 7.0141C8.755 6.9441 7.545 6.6191 6.405 6.0391C5.305 5.4691 4.36 4.6991 3.57 3.7291C3.29 4.2191 3.15 4.7441 3.15 5.3041C3.15 5.8441 3.275 6.3441 3.525 6.8041C3.775 7.2641 4.115 7.6341 4.545 7.9141C4.045 7.9041 3.57 7.7741 3.12 7.5241V7.5691C3.12 8.0691 3.23 8.5341 3.45 8.9641C3.67 9.3941 3.9725 9.7566 4.3575 10.0516C4.7425 10.3466 5.17 10.5441 5.64 10.6441C5.37 10.7141 5.095 10.7491 4.815 10.7491C4.615 10.7491 4.42 10.7291 4.23 10.6891C4.43 11.3191 4.7975 11.8366 5.3325 12.2416C5.8675 12.6466 6.475 12.8591 7.155 12.8791C6.59501 13.3091 5.9825 13.6391 5.3175 13.8691C4.6525 14.0991 3.965 14.2141 3.255 14.2141C3.005 14.2141 2.755 14.1991 2.505 14.1691C3.225 14.6291 3.995 14.9791 4.815 15.2191C5.635 15.4591 6.47 15.5791 7.32 15.5791C8.7 15.5791 9.975 15.3091 11.145 14.7691C12.215 14.2691 13.15 13.5691 13.95 12.6691C14.69 11.8291 15.26 10.8741 15.66 9.8041C16.05 8.7641 16.245 7.7141 16.245 6.6541C16.245 6.5241 16.24 6.3891 16.23 6.2491C16.85 5.7991 17.375 5.2591 17.805 4.6291Z" fill="#1B1B1B"/>
</svg>
