<svg width="20" height="19" viewBox="0 0 20 19" fill="none" xmlns="http://www.w3.org/2000/svg">
<path d="M10.105 3.36914C10.965 3.36914 11.79 3.38914 12.58 3.42914L12.955 3.44414C14.275 3.50414 15.165 3.59914 15.625 3.72914C15.985 3.82914 16.295 4.01414 16.555 4.28414C16.815 4.55414 16.99 4.87414 17.08 5.24414C17.21 5.74414 17.305 6.48914 17.365 7.47914C17.395 8.05914 17.415 8.64914 17.425 9.24914V9.48914C17.415 10.0891 17.395 10.6791 17.365 11.2591C17.305 12.2491 17.21 12.9941 17.08 13.4941C16.99 13.8641 16.815 14.1841 16.555 14.4541C16.295 14.7241 15.985 14.9091 15.625 15.0091C15.165 15.1391 14.275 15.2341 12.955 15.2941L12.58 15.3091C11.79 15.3391 10.965 15.3591 10.105 15.3691H9.74505C8.81505 15.3591 7.93005 15.3391 7.09005 15.3091C5.66005 15.2491 4.70505 15.1491 4.22505 15.0091C3.86505 14.9091 3.55505 14.7241 3.29505 14.4541C3.03505 14.1841 2.86005 13.8641 2.77005 13.4941C2.64005 12.9941 2.54505 12.2491 2.48505 11.2591C2.45505 10.6791 2.43505 10.0891 2.42505 9.48914V9.24914C2.43505 8.64914 2.45505 8.05914 2.48505 7.47914C2.54505 6.48914 2.64005 5.74414 2.77005 5.24414C2.86005 4.87414 3.03505 4.55414 3.29505 4.28414C3.55505 4.01414 3.86505 3.82914 4.22505 3.72914C4.70505 3.58914 5.66005 3.48914 7.09005 3.42914C7.92005 3.39914 8.80505 3.37914 9.74505 3.36914H10.105ZM8.42505 6.74414V11.9941L12.925 9.36914L8.42505 6.74414Z" fill="#1B1B1B"/>
</svg>
